<svg width="14" height="16" viewBox="0 0 14 16" fill="none" xmlns="http://www.w3.org/2000/svg">
<path d="M3.88889 9.5C3.66852 9.5 3.48367 9.428 3.33433 9.284C3.185 9.14 3.11059 8.962 3.11111 8.75C3.11111 8.5375 3.18578 8.35925 3.33511 8.21525C3.48445 8.07125 3.66904 7.9995 3.88889 8C4.10926 8 4.29411 8.072 4.44345 8.216C4.59278 8.36 4.66719 8.538 4.66667 8.75C4.66667 8.9625 4.592 9.14075 4.44267 9.28475C4.29333 9.42875 4.10874 9.5005 3.88889 9.5ZM7 9.5C6.77963 9.5 6.59478 9.428 6.44544 9.284C6.29611 9.14 6.2217 8.962 6.22222 8.75C6.22222 8.5375 6.29689 8.35925 6.44622 8.21525C6.59556 8.07125 6.78015 7.9995 7 8C7.22037 8 7.40522 8.072 7.55456 8.216C7.70389 8.36 7.7783 8.538 7.77778 8.75C7.77778 8.9625 7.70311 9.14075 7.55378 9.28475C7.40444 9.42875 7.21985 9.5005 7 9.5ZM10.1111 9.5C9.89074 9.5 9.70589 9.428 9.55655 9.284C9.40722 9.14 9.33281 8.962 9.33333 8.75C9.33333 8.5375 9.408 8.35925 9.55733 8.21525C9.70667 8.07125 9.89126 7.9995 10.1111 8C10.3315 8 10.5163 8.072 10.6657 8.216C10.815 8.36 10.8894 8.538 10.8889 8.75C10.8889 8.9625 10.8142 9.14075 10.6649 9.28475C10.5156 9.42875 10.331 9.5005 10.1111 9.5ZM1.55556 15.5C1.12778 15.5 0.761446 15.353 0.456557 15.059C0.151668 14.765 -0.000517198 14.412 1.32051e-06 14V3.5C1.32051e-06 3.0875 0.152446 2.73425 0.457335 2.44025C0.762223 2.14625 1.1283 1.9995 1.55556 2H2.33333V0.5H3.88889V2H10.1111V0.5H11.6667V2H12.4444C12.8722 2 13.2386 2.147 13.5434 2.441C13.8483 2.735 14.0005 3.088 14 3.5V14C14 14.4125 13.8476 14.7657 13.5427 15.0597C13.2378 15.3537 12.8717 15.5005 12.4444 15.5H1.55556ZM1.55556 14H12.4444V6.5H1.55556V14Z" fill="#A1A1A1"/>
</svg>
